<mxfile host="app.diagrams.net" modified="2022-05-31T03:56:08.687Z" agent="5.0 (Windows NT 10.0; Win64; x64) AppleWebKit/537.36 (KHTML, like Gecko) Chrome/102.0.0.0 Safari/537.36" etag="531uuH2JGMPI_WjEZ_cW" version="18.1.3" type="github">
  <diagram id="xRSx3QOqDf72Wf7o3ix3" name="Page-1">
    <mxGraphModel dx="1038" dy="539" grid="1" gridSize="10" guides="1" tooltips="1" connect="1" arrows="1" fold="1" page="1" pageScale="1" pageWidth="850" pageHeight="1100" math="0" shadow="0">
      <root>
        <mxCell id="0" />
        <mxCell id="1" parent="0" />
        <mxCell id="7_fLNaqWw60PJ-q3XdgR-8" value="" style="edgeStyle=orthogonalEdgeStyle;rounded=0;orthogonalLoop=1;jettySize=auto;html=1;" edge="1" parent="1" source="7_fLNaqWw60PJ-q3XdgR-3" target="7_fLNaqWw60PJ-q3XdgR-7">
          <mxGeometry relative="1" as="geometry" />
        </mxCell>
        <mxCell id="7_fLNaqWw60PJ-q3XdgR-3" value="&lt;b&gt;Faculty CoPo Dashboard&lt;/b&gt;" style="rounded=1;whiteSpace=wrap;html=1;fillColor=#dae8fc;strokeColor=#6c8ebf;" vertex="1" parent="1">
          <mxGeometry x="160" y="190" width="120" height="60" as="geometry" />
        </mxCell>
        <mxCell id="7_fLNaqWw60PJ-q3XdgR-5" value="" style="edgeStyle=orthogonalEdgeStyle;rounded=0;orthogonalLoop=1;jettySize=auto;html=1;" edge="1" parent="1" source="7_fLNaqWw60PJ-q3XdgR-4" target="7_fLNaqWw60PJ-q3XdgR-3">
          <mxGeometry relative="1" as="geometry" />
        </mxCell>
        <mxCell id="7_fLNaqWw60PJ-q3XdgR-4" value="&lt;b&gt;Login&lt;/b&gt;" style="ellipse;whiteSpace=wrap;html=1;fillColor=#f5f5f5;fontColor=#333333;strokeColor=#666666;" vertex="1" parent="1">
          <mxGeometry x="10" y="180" width="120" height="80" as="geometry" />
        </mxCell>
        <mxCell id="7_fLNaqWw60PJ-q3XdgR-16" value="" style="edgeStyle=orthogonalEdgeStyle;rounded=0;orthogonalLoop=1;jettySize=auto;html=1;" edge="1" parent="1" source="7_fLNaqWw60PJ-q3XdgR-7" target="7_fLNaqWw60PJ-q3XdgR-15">
          <mxGeometry relative="1" as="geometry" />
        </mxCell>
        <mxCell id="7_fLNaqWw60PJ-q3XdgR-7" value="" style="whiteSpace=wrap;html=1;aspect=fixed;fillColor=#d5e8d4;strokeColor=#82b366;" vertex="1" parent="1">
          <mxGeometry x="320" y="52.5" width="335" height="335" as="geometry" />
        </mxCell>
        <mxCell id="7_fLNaqWw60PJ-q3XdgR-10" value="&lt;b&gt;Question Paper Template&lt;/b&gt;" style="shape=process;whiteSpace=wrap;html=1;backgroundOutline=1;fillColor=#ffe6cc;strokeColor=#d79b00;" vertex="1" parent="1">
          <mxGeometry x="370" y="65" width="220" height="60" as="geometry" />
        </mxCell>
        <mxCell id="7_fLNaqWw60PJ-q3XdgR-17" style="edgeStyle=orthogonalEdgeStyle;rounded=0;orthogonalLoop=1;jettySize=auto;html=1;exitX=1;exitY=0.5;exitDx=0;exitDy=0;" edge="1" parent="1" source="7_fLNaqWw60PJ-q3XdgR-11">
          <mxGeometry relative="1" as="geometry">
            <mxPoint x="420" y="50" as="targetPoint" />
          </mxGeometry>
        </mxCell>
        <mxCell id="7_fLNaqWw60PJ-q3XdgR-11" value="Navigation" style="text;html=1;strokeColor=#9673a6;fillColor=#e1d5e7;align=center;verticalAlign=middle;whiteSpace=wrap;rounded=0;fontStyle=1" vertex="1" parent="1">
          <mxGeometry x="350" y="10" width="60" height="30" as="geometry" />
        </mxCell>
        <mxCell id="7_fLNaqWw60PJ-q3XdgR-12" value="&lt;b&gt;Update Marks&lt;/b&gt;" style="shape=process;whiteSpace=wrap;html=1;backgroundOutline=1;fillColor=#ffe6cc;strokeColor=#d79b00;" vertex="1" parent="1">
          <mxGeometry x="370" y="133" width="220" height="60" as="geometry" />
        </mxCell>
        <mxCell id="7_fLNaqWw60PJ-q3XdgR-13" value="&lt;b&gt;Co Attainement&lt;/b&gt;" style="shape=process;whiteSpace=wrap;html=1;backgroundOutline=1;fillColor=#ffe6cc;strokeColor=#d79b00;" vertex="1" parent="1">
          <mxGeometry x="371" y="200" width="220" height="60" as="geometry" />
        </mxCell>
        <mxCell id="7_fLNaqWw60PJ-q3XdgR-14" value="&lt;b&gt;Survey&lt;/b&gt;" style="shape=process;whiteSpace=wrap;html=1;backgroundOutline=1;fillColor=#ffe6cc;strokeColor=#d79b00;" vertex="1" parent="1">
          <mxGeometry x="372" y="267" width="220" height="60" as="geometry" />
        </mxCell>
        <mxCell id="7_fLNaqWw60PJ-q3XdgR-15" value="&lt;b&gt;DB&lt;/b&gt;" style="shape=cylinder3;whiteSpace=wrap;html=1;boundedLbl=1;backgroundOutline=1;size=15;fillColor=#fff2cc;strokeColor=#d6b656;" vertex="1" parent="1">
          <mxGeometry x="740" y="180" width="60" height="80" as="geometry" />
        </mxCell>
      </root>
    </mxGraphModel>
  </diagram>
</mxfile>
